<svg width="50" height="50" viewBox="0 0 50 50" fill="none" xmlns="http://www.w3.org/2000/svg">
<path d="M25 50C38.8071 50 50 38.8071 50 25C50 11.1929 38.8071 0 25 0C11.1929 0 0 11.1929 0 25C0 38.8071 11.1929 50 25 50Z" fill="#F0F0F0"/>
<path d="M5.16797 9.77949C3.2042 12.3345 1.72344 15.2793 0.861229 18.4784H13.8669L5.16797 9.77949Z" fill="#0052B4"/>
<path d="M49.1388 18.4784C48.2766 15.2794 46.7957 12.3346 44.832 9.77959L36.1333 18.4784H49.1388Z" fill="#0052B4"/>
<path d="M0.861229 31.5219C1.72353 34.7209 3.2043 37.6657 5.16797 40.2206L13.8666 31.5219H0.861229Z" fill="#0052B4"/>
<path d="M40.2205 5.16807C37.6655 3.2043 34.7208 1.72353 31.5217 0.861229V13.8668L40.2205 5.16807Z" fill="#0052B4"/>
<path d="M9.77949 44.8319C12.3345 46.7957 15.2793 48.2765 18.4783 49.1388V36.1333L9.77949 44.8319Z" fill="#0052B4"/>
<path d="M18.4782 0.861229C15.2792 1.72353 12.3344 3.2043 9.77949 5.16797L18.4782 13.8667V0.861229Z" fill="#0052B4"/>
<path d="M31.5218 49.1388C34.7208 48.2765 37.6656 46.7957 40.2205 44.832L31.5218 36.1333V49.1388Z" fill="#0052B4"/>
<path d="M36.1333 31.5219L44.832 40.2207C46.7957 37.6658 48.2766 34.7209 49.1388 31.5219H36.1333Z" fill="#0052B4"/>
<path d="M49.7884 21.7392H28.261H28.2609V0.211621C27.1935 0.0726563 26.1052 0 25 0C23.8946 0 22.8065 0.0726563 21.7392 0.211621V21.739V21.7391H0.211621C0.0726563 22.8065 0 23.8948 0 25C0 26.1054 0.0726563 27.1935 0.211621 28.2608H21.739H21.7391V49.7884C22.8065 49.9273 23.8946 50 25 50C26.1052 50 27.1935 49.9274 28.2608 49.7884V28.261V28.2609H49.7884C49.9273 27.1935 50 26.1054 50 25C50 23.8948 49.9273 22.8065 49.7884 21.7392Z" fill="#D80027"/>
<path d="M31.5218 31.5219L42.6776 42.6777C43.1907 42.1648 43.6802 41.6286 44.1472 41.0728L34.5962 31.5218H31.5218V31.5219Z" fill="#D80027"/>
<path d="M18.4782 31.5219H18.478L7.32227 42.6776C7.83516 43.1907 8.37139 43.6802 8.92725 44.1472L18.4782 34.596V31.5219Z" fill="#D80027"/>
<path d="M18.4782 18.4784V18.4782L7.32236 7.32227C6.80927 7.83516 6.31982 8.37139 5.85283 8.92725L15.4039 18.4783H18.4782V18.4784Z" fill="#D80027"/>
<path d="M31.5218 18.4784L42.6777 7.32236C42.1648 6.80928 41.6286 6.31982 41.0728 5.85293L31.5218 15.404V18.4784Z" fill="#D80027"/>
</svg>
