<svg width="219" height="60" viewBox="0 0 219 60" fill="none" xmlns="http://www.w3.org/2000/svg">
<g clip-path="url(#clip0_325_4)">
<path d="M59.4965 28.4455C59.5636 27.5948 59.2851 27.0701 58.5018 26.7217C57.7378 26.3818 56.9321 26.3557 56.1385 26.4977C54.4196 26.8049 52.6958 27.0115 50.9479 26.9635C50.163 26.9423 49.3786 26.8753 48.5938 26.869C46.8354 26.8549 45.1943 27.2554 43.6471 28.1406C43.2233 28.383 42.5799 28.346 42.0544 28.2868C40.1915 28.0778 38.3241 27.8696 36.4804 27.5381C34.0941 27.1088 31.9281 26.2028 30.099 24.5052C29.2904 23.7544 28.2261 23.2756 27.265 22.6947C27.0556 22.5682 26.7904 22.5328 26.4943 22.4374C26.521 22.7555 26.5506 22.9745 26.556 23.1944C26.5722 23.8361 26.3099 24.0471 25.6974 23.8211C25.1869 23.6325 24.7056 23.3656 24.2106 23.1349C22.9951 22.5682 21.8056 21.9332 20.5568 21.4523C20.2636 21.3395 19.9689 21.2304 19.6736 21.1226C18.2754 20.498 16.8306 19.99 15.3225 19.6598C15.3096 19.6556 15.2966 19.6515 15.2842 19.6474C14.9577 19.5421 14.8774 19.3613 14.8104 19.0873C14.2378 16.7502 13.3476 14.5513 11.6829 12.7745C10.9568 11.9992 10.0544 11.3838 9.20136 10.7372C9.0148 10.5961 8.63302 10.5204 8.45514 10.6194C8.30441 10.703 8.30359 11.0807 8.26277 11.3326C8.14663 12.053 8.07417 12.7816 7.92925 13.4958C7.6436 14.9031 7.63034 16.298 7.88057 17.717C7.98049 18.2837 8.31737 18.74 8.39983 19.221C7.31132 19.6424 6.21383 20.0017 5.17451 20.4851C3.75003 21.1472 2.60131 22.1631 1.796 23.5293C1.50872 24.0165 1.14479 24.3754 0.620951 24.6223C0.350303 24.7498 -0.013214 25.0841 0.000563337 25.3031C0.0159735 25.5442 0.377756 25.8532 0.65718 25.9723C2.33771 26.6888 4.11437 26.7659 5.89521 26.5632C8.61628 26.2529 10.9888 25.0876 13.1378 23.4311C13.5912 23.0814 14.0205 23.0648 14.5485 23.3433C17.3832 24.8394 19.8178 26.8537 21.9463 29.2117C23.7175 31.1741 25.2599 33.3435 27.0407 35.2964C28.1251 36.4851 29.4683 37.4382 30.6987 38.4937C30.8782 38.6474 31.075 38.7806 31.2333 38.9001C30.595 41.8026 28.7309 43.8825 26.7276 45.8723C26.4362 46.1617 26.1381 46.4453 25.8608 46.7476C25.3594 47.2934 25.4078 47.8468 26.0194 48.269C26.5777 48.6545 27.2136 48.767 27.871 48.6716C28.0975 48.6641 28.2982 48.6175 28.471 48.5379C28.6259 48.4917 28.7763 48.438 28.9216 48.3768C29.0332 48.3406 29.1398 48.2914 29.2397 48.2277C29.8809 47.8908 30.4164 47.392 30.8478 46.7492C32.1119 44.865 33.6088 43.1854 35.236 41.6103C35.5941 41.2634 35.9038 41.228 36.3614 41.3757C37.88 41.8663 39.4414 42.1352 41.0437 42.1274C42.6787 42.1194 44.2032 41.6277 45.7125 41.068C45.8658 41.0114 46.0181 40.9522 46.2143 40.8782C46.3957 42.6803 47.3181 44.0085 48.5214 45.209C49.0244 45.7108 49.4741 46.2999 49.8092 46.9241C50.1061 47.4776 50.2685 48.1234 50.3847 48.7483C50.5071 49.4074 50.8585 49.6476 51.332 49.1892C51.7039 48.8295 52.0189 48.3274 52.1638 47.831C52.7089 45.9626 51.9424 44.4396 50.6774 43.1479C49.7838 42.2352 49.2093 41.1921 48.9156 39.9684C48.8248 39.5887 48.869 39.3102 49.2355 39.057C50.5649 38.138 51.4581 36.8039 52.4791 35.5872C54.1263 33.6244 56.1254 32.1453 58.5965 31.3576C59.2285 31.156 59.7199 30.7742 59.9289 30.1143C60.0346 29.7807 60.0576 29.4805 59.7486 29.1836C59.5778 29.0209 59.477 28.689 59.4965 28.4455Z" fill="white"/>
</g>
<path d="M108.266 44H102.061L98.5801 30.5C98.4512 30.0195 98.2285 29.0293 97.9121 27.5293C97.6074 26.0176 97.4316 25.0039 97.3848 24.4883C97.3145 25.1211 97.1387 26.1406 96.8574 27.5469C96.5762 28.9414 96.3594 29.9375 96.207 30.5352L92.7441 44H86.5566L80 18.3008H85.3613L88.6484 32.3281C89.2227 34.918 89.6387 37.1621 89.8965 39.0605C89.9668 38.3926 90.125 37.3613 90.3711 35.9668C90.6289 34.5605 90.8691 33.4707 91.0918 32.6973L94.8359 18.3008H99.9863L103.73 32.6973C103.895 33.3418 104.1 34.3262 104.346 35.6504C104.592 36.9746 104.779 38.1113 104.908 39.0605C105.025 38.1465 105.213 37.0098 105.471 35.6504C105.729 34.2793 105.963 33.1719 106.174 32.3281L109.443 18.3008H114.805L108.266 44ZM135.758 44H130.396V32.5215C130.396 29.6855 129.342 28.2676 127.232 28.2676C125.732 28.2676 124.648 28.7773 123.98 29.7969C123.312 30.8164 122.979 32.4688 122.979 34.7539V44H117.617V16.6484H122.979V22.2207C122.979 22.6543 122.938 23.6738 122.855 25.2793L122.732 26.8613H123.014C124.209 24.9395 126.107 23.9785 128.709 23.9785C131.018 23.9785 132.77 24.5996 133.965 25.8418C135.16 27.084 135.758 28.8652 135.758 31.1855V44ZM153.758 44L152.721 41.3281H152.58C151.678 42.4648 150.746 43.2559 149.785 43.7012C148.836 44.1348 147.594 44.3516 146.059 44.3516C144.172 44.3516 142.684 43.8125 141.594 42.7344C140.516 41.6562 139.977 40.1211 139.977 38.1289C139.977 36.043 140.703 34.5078 142.156 33.5234C143.621 32.5273 145.824 31.9766 148.766 31.8711L152.176 31.7656V30.9043C152.176 28.9121 151.156 27.916 149.117 27.916C147.547 27.916 145.701 28.3906 143.58 29.3398L141.805 25.7188C144.066 24.5352 146.574 23.9434 149.328 23.9434C151.965 23.9434 153.986 24.5176 155.393 25.666C156.799 26.8145 157.502 28.5605 157.502 30.9043V44H153.758ZM152.176 34.8945L150.102 34.9648C148.543 35.0117 147.383 35.293 146.621 35.8086C145.859 36.3242 145.479 37.1094 145.479 38.1641C145.479 39.6758 146.346 40.4316 148.08 40.4316C149.322 40.4316 150.312 40.0742 151.051 39.3594C151.801 38.6445 152.176 37.6953 152.176 36.5117V34.8945ZM168.4 44H163.039V16.6484H168.4V44ZM182.182 27.793C181.045 27.793 180.154 28.1562 179.51 28.8828C178.865 29.5977 178.496 30.6172 178.402 31.9414H185.926C185.902 30.6172 185.557 29.5977 184.889 28.8828C184.221 28.1562 183.318 27.793 182.182 27.793ZM182.938 44.3516C179.773 44.3516 177.301 43.4785 175.52 41.7324C173.738 39.9863 172.848 37.5137 172.848 34.3145C172.848 31.0215 173.668 28.4785 175.309 26.6855C176.961 24.8809 179.24 23.9785 182.146 23.9785C184.924 23.9785 187.086 24.7695 188.633 26.3516C190.18 27.9336 190.953 30.1191 190.953 32.9082V35.5098H178.279C178.338 37.0332 178.789 38.2227 179.633 39.0781C180.477 39.9336 181.66 40.3613 183.184 40.3613C184.367 40.3613 185.486 40.2383 186.541 39.9922C187.596 39.7461 188.697 39.3535 189.846 38.8145V42.9629C188.908 43.4316 187.906 43.7773 186.84 44C185.773 44.2344 184.473 44.3516 182.938 44.3516Z" fill="white"/>
<defs>
<clipPath id="clip0_325_4">
<rect width="60" height="60" fill="white"/>
</clipPath>
</defs>
</svg>
