<svg width="50" height="50" viewBox="0 0 50 50" fill="none" xmlns="http://www.w3.org/2000/svg">
<path d="M25 50C38.8071 50 50 38.8071 50 25C50 11.1929 38.8071 0 25 0C11.1929 0 0 11.1929 0 25C0 38.8071 11.1929 50 25 50Z" fill="#FFDA44"/>
<path d="M19.5653 21.7392H49.7883C48.1904 9.47285 37.7018 0 25 0C23.1334 0 21.3151 0.206348 19.5652 0.594238V21.7392H19.5653Z" fill="#0052B4"/>
<path d="M13.0434 21.7391V3.03975C6.17879 6.78526 1.26464 13.6555 0.211609 21.7392H13.0434V21.7391Z" fill="#0052B4"/>
<path d="M13.0433 28.2608H0.211609C1.26464 36.3445 6.17879 43.2147 13.0434 46.9601L13.0433 28.2608Z" fill="#0052B4"/>
<path d="M19.5652 28.2609V49.4058C21.3151 49.7936 23.1334 50 25 50C37.7018 50 48.1904 40.5271 49.7883 28.2608H19.5652V28.2609Z" fill="#0052B4"/>
</svg>
