<svg width="1920" height="561" viewBox="0 0 1920 561" fill="none" xmlns="http://www.w3.org/2000/svg">
<path d="M1835.72 124.127C1835.72 124.127 1834.48 151.097 1832.44 161.121C1830.4 171.146 1816.02 189.865 1813.98 188.712C1811.94 187.558 1812.3 176.647 1810.35 168.662C1808.31 160.678 1805.56 145.951 1806.09 141.782C1806.62 137.523 1812.48 133.797 1812.74 128.563C1812.92 123.24 1835.72 124.127 1835.72 124.127Z" fill="#0A0D4F"/>
<path opacity="0.2" d="M1833.94 124.66C1833.94 124.66 1832.88 155 1830.57 161.831C1828.27 168.662 1817.89 184.01 1816.91 184.187C1816.02 184.365 1823.03 170.969 1824.9 164.138C1826.76 157.307 1829.69 143.911 1829.86 134.33C1830.04 124.748 1830.4 122.708 1830.4 122.708L1833.94 124.66Z" fill="#939598"/>
<path d="M1906.87 104.344C1906.87 104.344 1909.09 102.925 1907.31 99.3763C1905.54 95.8277 1902.43 92.1017 1902.08 89.3515C1901.72 86.6901 1900.92 65.1324 1863.93 52.4462C1827.03 39.76 1791.18 40.9133 1775.93 41.8004C1760.67 42.5989 1710.28 55.8173 1669.73 84.827C1629.19 113.837 1593.35 164.493 1585.72 169.372C1578.09 174.251 1577.83 172.122 1558.66 171.679C1539.5 171.235 1510.85 176.558 1508.81 178.598C1506.77 180.639 1508.81 180.55 1512.62 182.324C1516.44 184.099 1516.44 184.099 1516.44 184.099C1516.44 184.099 1532.05 191.462 1539.59 194.301C1547.13 197.14 1558.4 199.89 1564.07 199.713C1569.75 199.535 1573.74 199.535 1573.74 199.535C1573.74 199.535 1574.45 204.769 1580.58 209.116C1586.7 213.463 1600.27 219.052 1603.46 222.423C1606.66 225.706 1605.86 228.013 1608.25 228.545C1610.65 229.077 1615.44 214.971 1614.29 210.092C1613.13 205.213 1608.34 194.478 1608.96 191.551C1609.5 188.712 1613.58 180.195 1616.59 177.889C1619.61 175.582 1648.18 156.154 1678.78 150.298C1700.16 146.218 1736.09 141.782 1763.42 137.967C1790.65 134.152 1832.53 126.967 1845.21 126.346C1857.99 125.725 1879.63 123.418 1890.81 118.361C1902.26 113.304 1906.87 104.344 1906.87 104.344Z" fill="white"/>
<path d="M1779.56 47.4781C1779.56 47.4781 1773.53 38.5179 1771.49 34.8806C1769.45 31.1546 1767.14 14.2101 1748.78 5.16119C1730.5 -3.88771 1725.89 1.34646 1725.71 3.12075C1725.54 4.89504 1734.41 19.7104 1734.67 29.6464C1734.94 39.5825 1730.59 55.8173 1730.59 55.8173L1779.56 47.4781Z" fill="#0A0D4F"/>
<path d="M1796.15 88.198C1796.15 88.198 1786.39 82.0767 1776.28 83.3187C1766.26 84.5607 1764.75 87.9318 1764.04 89.44C1763.33 90.9481 1754.55 97.7792 1750.82 99.997C1747.09 102.215 1741.95 110.022 1740.44 118.184C1738.93 126.345 1732.37 138.322 1732.9 140.894C1733.43 143.467 1748.69 140.983 1757.38 132.91C1766.08 124.837 1783.64 103.812 1785.95 99.1986C1788.35 94.4967 1791.89 92.1014 1793.05 91.4804C1794.38 90.7707 1798.28 90.7707 1796.15 88.198Z" fill="#0A0D4F"/>
<path d="M1508.81 178.598C1510.85 176.558 1539.5 171.235 1558.66 171.679C1577.83 172.122 1578.09 174.251 1585.72 169.372C1593.35 164.493 1629.19 113.837 1669.74 84.8269C1710.28 55.8172 1760.58 42.5987 1775.93 41.8002C1791.19 41.0018 1827.03 39.7598 1863.93 52.446C1900.84 65.1322 1901.72 86.6899 1902.08 89.3513C1902.43 92.0127 1905.63 95.8275 1907.31 99.3761C1909 102.925 1906.87 104.344 1906.87 104.344C1906.87 104.344 1895.96 94.5855 1885.31 93.6096C1874.67 92.6338 1830.13 88.819 1827.03 88.3754C1823.92 87.9319 1822.5 84.8269 1821.88 82.4316C1821.26 80.0363 1811.23 75.2457 1808.04 75.6892C1804.85 76.2215 1802.54 82.4316 1799.79 87.3996C1797.04 92.4563 1793.31 104.788 1779.39 106.03C1765.46 107.272 1750.11 86.4237 1734.41 87.577C1718.71 88.7303 1698.57 111.175 1688.99 113.393C1679.4 115.611 1670.44 99.9971 1657.85 106.296C1645.16 112.595 1632.56 128.829 1636.91 130.604C1641.26 132.378 1657.67 136.37 1670.36 133.62C1683.13 130.87 1687.21 125.99 1693.51 130.071C1699.81 134.152 1703.09 142.048 1700.43 144.532C1699.54 145.33 1697.06 146.484 1694.22 147.637C1688.72 148.524 1683.57 149.411 1679.05 150.21C1648.44 156.065 1619.88 175.582 1616.86 177.8C1616.59 178.066 1616.24 178.332 1615.97 178.687C1613.84 177.001 1609.32 174.074 1604 174.163C1596.55 174.251 1596.01 178.687 1582.79 179.663C1569.66 180.639 1525.93 178.864 1520.43 178.953C1514.93 179.042 1515.73 180.905 1515.73 180.905C1515.73 180.905 1541.63 194.123 1551.3 195.809C1560.88 197.494 1571.79 199.801 1578.63 198.293C1582.17 197.494 1585.54 196.696 1587.94 196.164C1583.59 197.406 1576.94 199.978 1579.25 204.237C1582.53 210.358 1600.89 217.899 1604.09 220.738C1607.37 223.577 1608.52 225.794 1608.52 225.794C1608.52 225.794 1612.6 219.496 1611.8 212.842C1611.01 206.189 1607.46 196.43 1609.23 191.639C1608.7 194.478 1613.49 205.301 1614.55 210.181C1615.71 215.06 1610.92 229.166 1608.52 228.633C1606.13 228.101 1606.93 225.883 1603.73 222.512C1600.54 219.23 1586.96 213.552 1580.84 209.205C1574.72 204.858 1574.01 199.624 1574.01 199.624C1574.01 199.624 1570.02 199.624 1564.34 199.801C1558.66 199.979 1547.4 197.228 1539.86 194.389C1532.32 191.551 1516.7 184.187 1516.7 184.187C1516.7 184.187 1516.7 184.187 1512.89 182.413C1508.9 180.55 1506.77 180.727 1508.81 178.598ZM1830.13 68.9469C1835.99 70.8099 1849.12 71.5197 1852.75 73.2052C1856.39 74.8908 1862.25 71.7858 1858.34 70.0115C1858.34 70.0115 1832.53 57.5914 1825.25 60.4303C1817.89 63.3579 1824.36 67.0839 1830.13 68.9469Z" fill="#0A0D4F"/>
<path opacity="0.2" d="M1728.2 59.6319C1699.1 70.4551 1665.03 91.6579 1660.24 95.2952C1657.31 97.5131 1658.2 95.2065 1662.37 90.4159C1664.85 88.4642 1667.25 86.6011 1669.73 84.8269C1710.28 55.8172 1760.58 42.5987 1775.93 41.8002C1791.18 41.0018 1827.03 39.7598 1863.93 52.446C1876 56.6156 1884.16 61.6723 1889.75 66.7291C1893.21 70.9874 1896.93 76.399 1897.11 80.0363C1897.46 86.8673 1888.24 72.5842 1875.11 65.9306C1862.07 59.277 1818.77 50.3168 1809.02 51.825C1799.35 53.3331 1794.64 57.1479 1784.97 53.9541C1775.39 50.8491 1757.3 48.8087 1728.2 59.6319Z" fill="#939598"/>
<path opacity="0.2" d="M1769.45 39.3164C1769.45 39.3164 1764.48 20.1541 1759.16 14.4763C1753.92 8.79859 1741.24 2.14499 1736.54 1.70141C1731.83 1.25784 1752.95 10.218 1757.21 15.5409C1761.47 20.8638 1765.46 39.8487 1767.05 40.6472C1768.65 41.4456 1769.45 39.3164 1769.45 39.3164Z" fill="#939598"/>
<path opacity="0.2" d="M1787.1 88.2869C1787.1 88.2869 1782.58 85.1819 1778.05 85.7142C1773.53 86.2465 1774.42 88.6418 1775.57 88.9966C1776.72 89.3515 1781.07 91.6581 1780.54 92.1904C1780.01 92.7227 1764.48 114.369 1761.64 116.055C1758.8 117.74 1754.72 116.055 1752.68 119.071C1750.64 122.087 1748.16 128.652 1745.94 130.87C1743.81 133.088 1740.09 136.015 1740.09 136.015C1740.09 136.015 1736.09 142.225 1744.17 137.346C1752.24 132.467 1768.3 118.273 1772.73 111.796C1777.08 105.32 1783.2 95.4728 1785.33 94.0534C1787.46 92.7227 1791.18 89.5289 1787.1 88.2869Z" fill="#939598"/>
<path opacity="0.3" d="M0 127.634C0 127.634 85.8576 157.722 340.962 170.066C596.065 182.41 1013.56 106.804 1196.66 99.0894C1379.89 91.3746 1593.71 127.429 1704.81 119.817C1815.9 112.205 1920 98.0093 1920 98.0093V561H0V127.634Z" fill="#0A0D4F"/>
<path opacity="0.3" d="M0 292C0 292 246.309 354.449 402.651 354.808C558.994 355.168 709.029 295.389 1015.68 347.824C1131.57 367.647 1091.79 446.068 1392.14 409.092C1692.48 372.115 1540.25 340.531 1673.97 335.909C1807.68 331.287 1920 345.153 1920 345.153V559H0V292Z" fill="#0A0D4F"/>
<path d="M197.237 353.299C197.237 353.299 193.045 357.164 195.207 360.373C197.368 363.583 194.093 378.846 195.534 389.786C196.975 400.791 201.233 414.94 210.994 419.787C216.758 422.67 234.248 402.035 225.209 384.545C223.309 380.811 215.383 376.16 214.4 371.378C213.417 366.597 214.531 366.138 214.531 366.138C214.531 366.138 211.583 352.775 197.237 353.299Z" fill="#0A0D4F"/>
<path d="M426.05 447.3C417.403 437.409 381.506 405.049 381.506 405.049C381.506 405.049 378.427 323.952 328.905 285.107C325.564 282.487 322.223 280.129 318.882 278.032C312.266 273.84 307.353 267.355 305.191 259.822C304.34 256.94 303.619 253.926 303.161 250.782C299.82 230.279 321.764 204.076 320.52 201.652C319.275 199.229 308.86 198.05 295.234 208.531C281.609 218.946 269.949 239.777 265.757 251.241C264.84 253.664 262.612 255.826 259.665 257.66C255.865 260.018 251.542 261.328 247.153 261.787C243.943 262.115 240.864 262.508 237.786 263.032C222.392 265.586 209.291 270.368 200.382 274.102C176.21 284.256 127.736 329.52 130.945 360.963C134.155 392.406 128.587 393.585 130.356 399.153C132.124 404.656 136.841 408.52 144.898 408.062C144.898 408.062 150.073 414.744 175.031 404.197C199.989 393.651 214.007 385.462 224.226 383.759C234.445 382.056 285.016 371.837 295.169 370.134C305.322 368.431 322.943 372.754 333.686 383.17C344.429 393.585 352.88 411.075 352.88 411.075C352.88 411.075 344.036 422.67 343.643 430.53C343.25 438.457 344.429 450.772 346.984 450.313C349.539 449.855 351.963 443.697 358.579 444.876C365.195 446.121 375.479 450.444 376.92 450.248C378.362 449.986 378.034 446.579 382.75 450.444C387.467 454.309 387.991 452.213 395.917 452.606C403.843 452.999 421.53 456.143 424.216 458.305C426.836 460.532 434.697 457.191 426.05 447.3Z" fill="white"/>
<path d="M232.807 373.999C232.807 373.999 232.676 380.091 236.738 380.811C240.864 381.532 250.166 395.419 259.796 402.494C269.425 409.569 283.509 416.774 294.579 412.844C301.13 410.486 298.117 381.532 277.81 375.571C273.486 374.326 263.988 376.947 259.534 374.195C255.079 371.444 255.603 370.199 255.603 370.199C255.603 370.199 243.092 362.404 232.807 373.999Z" fill="#0A0D4F"/>
<path d="M426.05 447.3C417.403 437.409 381.506 405.049 381.506 405.049C381.506 405.049 378.427 323.952 328.905 285.107C325.564 282.487 322.223 280.129 318.882 278.032C312.266 273.84 307.353 267.355 305.191 259.822C304.34 256.94 303.619 253.926 303.161 250.782C299.82 230.279 321.764 204.076 320.52 201.652C319.275 199.229 308.86 198.05 295.234 208.531C281.609 218.946 269.949 239.777 265.757 251.24C264.84 253.664 262.612 255.826 259.665 257.66C255.865 260.018 251.542 261.328 247.153 261.787C243.943 262.114 240.864 262.508 237.786 263.032C222.392 265.586 209.291 270.368 200.382 274.102C176.21 284.256 127.736 329.52 130.945 360.963C134.155 392.406 128.587 393.585 130.356 399.153C132.124 404.656 136.841 408.52 144.898 408.062C144.898 408.062 167.367 397.057 179.223 390.572C191.08 384.087 199.072 379.96 203.526 379.501C207.98 379.043 213.548 377.667 215.579 375.047C217.61 372.361 215.71 370.658 219.313 368.758C222.916 366.859 234.838 361.815 237.131 363.321C239.423 364.828 227.436 381.008 227.96 383.104C238.113 381.204 260.123 376.881 276.565 373.671C278.465 371.575 283.116 367.317 289.928 366.4C299.165 365.155 307.746 367.055 314.428 363.583C321.109 360.111 338.534 337.643 346.002 337.839C353.469 338.036 362.706 350.155 361.985 357.688C361.199 365.221 349.08 360.308 342.857 360.57C336.634 360.898 321.306 367.252 321.83 368.431C322.354 369.675 330.084 368.955 331.787 370.855C333.555 372.754 331.066 375.047 334.407 376.816C337.748 378.584 342.595 382.449 342.726 384.742C342.792 386.117 341.285 388.541 340.172 390.572C347.639 400.267 352.88 411.075 352.88 411.075L366.505 434.657C366.505 434.657 369.649 436.033 367.029 427.452C364.409 418.87 373.907 409.569 374.693 409.896C375.479 410.224 411.508 438.784 415.372 444.811C419.303 450.837 420.416 453.261 420.416 453.261L409.804 454.571C416.355 455.75 422.578 457.257 424.085 458.502C426.836 460.532 434.697 457.191 426.05 447.3ZM202.281 353.954C195.469 357.688 162.847 373.409 172.345 361.16C172.345 361.16 195.6 334.826 208.963 335.023C222.261 335.154 209.094 350.155 202.281 353.954Z" fill="#0A0D4F"/>
<path opacity="0.2" d="M149.615 321.332C149.615 321.332 177.979 285.762 211.911 275.15C245.843 264.538 248.594 268.731 247.546 270.958C246.432 273.185 210.928 279.67 192.652 292.051C174.376 304.431 155.903 332.796 149.221 336.529C142.605 340.263 144.964 326.703 149.615 321.332Z" fill="#B0BAC1"/>
<path opacity="0.2" d="M264.119 259.822C264.119 259.822 266.936 257.595 268.901 252.027C270.932 246.459 279.579 223.532 291.894 213.444C304.143 203.356 312.332 201.39 312.987 201.652C313.707 201.849 298.641 209.055 292.09 216.719C285.54 224.383 273.88 247.114 271.914 252.551C270.015 257.922 260.582 264.604 264.119 259.822Z" fill="#B0BAC1"/>
<path opacity="0.2" d="M317.179 279.932C317.179 279.932 335.062 290.282 348.36 309.148C361.658 328.014 338.141 306.2 331.328 304.759C324.516 303.252 323.795 300.37 323.14 295.064C322.616 289.824 311.021 275.805 317.179 279.932Z" fill="#B0BAC1"/>
<path opacity="0.2" d="M236.148 373.409C236.148 373.409 242.437 365.352 246.76 367.907C251.083 370.461 253.442 385.659 264.381 389.262C275.321 392.865 282.395 385.069 286.195 388.672C289.928 392.275 294.055 405.245 291.763 407.669C289.47 410.093 281.151 409.962 268.442 401.642C255.734 393.389 232.938 376.75 236.148 373.409Z" fill="#B0BAC1"/>
<path d="M1736.07 507.524C1736.71 506.633 1737.06 506.732 1738.3 506.088C1739.49 505.444 1741.81 504.651 1746.02 505.097C1749.24 505.444 1761.28 505.444 1769.85 505.196C1771.19 504.205 1772.87 502.422 1773.66 499.747C1775.1 494.943 1778.72 486.373 1779.96 486.026C1781.14 485.68 1780.5 488.8 1781.05 492.416C1781.44 495.091 1782.88 500.689 1784.96 503.958C1792.29 502.918 1800.91 501.481 1805.42 501.481C1812.05 501.481 1817.55 502.373 1821.17 504.354C1824.78 506.335 1825.38 506.435 1825.38 506.435C1825.38 506.435 1828.35 506.236 1829.34 506.633C1830.33 507.029 1829.79 507.178 1830.53 508.168C1831.32 509.159 1833.6 514.013 1835.04 514.657C1836.47 515.301 1836.38 516.44 1834.25 515.549C1832.16 514.657 1826.17 508.812 1822.75 508.713C1819.34 508.614 1808.19 511.041 1795.61 519.313C1783.03 527.586 1764.4 525.158 1764.4 525.158C1764.4 525.158 1766.73 528.923 1765.49 529.914C1764.3 530.904 1760.98 529.914 1760.98 529.914C1760.98 529.914 1760.54 535.561 1759.65 536.106C1758.76 536.65 1755.88 536.65 1752.37 531.152C1748.85 525.654 1749.84 520.998 1749.84 520.998L1747.76 519.908C1747.76 519.908 1743.99 517.827 1741.72 515.4C1739.49 512.924 1735.42 508.366 1736.07 507.524Z" fill="#0A0D4F"/>
</svg>
