<svg width="60" height="40" viewBox="0 0 60 40" fill="none" xmlns="http://www.w3.org/2000/svg">
<path d="M59.4965 18.4455C59.5636 17.5948 59.2851 17.0701 58.5018 16.7217C57.7378 16.3818 56.9321 16.3557 56.1385 16.4977C54.4196 16.8049 52.6958 17.0115 50.9479 16.9635C50.163 16.9423 49.3786 16.8753 48.5938 16.869C46.8354 16.8549 45.1943 17.2554 43.6471 18.1406C43.2233 18.383 42.5799 18.346 42.0544 18.2868C40.1915 18.0778 38.324 17.8696 36.4804 17.5381C34.0941 17.1088 31.9281 16.2028 30.099 14.5052C29.2904 13.7544 28.2261 13.2756 27.265 12.6947C27.0556 12.5682 26.7904 12.5328 26.4943 12.4374C26.521 12.7555 26.5506 12.9745 26.556 13.1944C26.5722 13.8361 26.3099 14.0471 25.6974 13.8211C25.1869 13.6325 24.7056 13.3656 24.2106 13.1349C22.9951 12.5682 21.8056 11.9332 20.5568 11.4523C20.2636 11.3395 19.9689 11.2304 19.6736 11.1226C18.2754 10.498 16.8306 9.98997 15.3225 9.65983C15.3096 9.65564 15.2966 9.65146 15.2842 9.64738C14.9577 9.54206 14.8774 9.36132 14.8104 9.0873C14.2378 6.75016 13.3476 4.5513 11.6829 2.77454C10.9568 1.99923 10.0544 1.38385 9.20136 0.73723C9.01481 0.596089 8.63302 0.520365 8.45514 0.619358C8.30441 0.703042 8.30359 1.08074 8.26277 1.33261C8.14663 2.05301 8.07417 2.78158 7.92925 3.49575C7.6436 4.90308 7.63034 6.29796 7.88057 7.71702C7.98049 8.28373 8.31737 8.74001 8.39983 9.22099C7.31132 9.64238 6.21383 10.0017 5.17451 10.4851C3.75003 11.1472 2.60131 12.1631 1.796 13.5293C1.50872 14.0165 1.14479 14.3754 0.620951 14.6223C0.350303 14.7498 -0.013214 15.0841 0.000563337 15.3031C0.0159735 15.5442 0.377756 15.8532 0.65718 15.9723C2.33771 16.6888 4.11437 16.7659 5.89521 16.5632C8.61628 16.2529 10.9888 15.0876 13.1378 13.4311C13.5912 13.0814 14.0205 13.0648 14.5485 13.3433C17.3832 14.8394 19.8178 16.8537 21.9463 19.2117C23.7175 21.1741 25.2599 23.3435 27.0407 25.2964C28.1251 26.4851 29.4683 27.4382 30.6987 28.4937C30.8782 28.6474 31.075 28.7806 31.2333 28.9001C30.595 31.8026 28.7309 33.8825 26.7276 35.8723C26.4362 36.1617 26.1381 36.4453 25.8608 36.7476C25.3594 37.2935 25.4078 37.8468 26.0194 38.269C26.5777 38.6545 27.2136 38.767 27.871 38.6716C28.0975 38.6641 28.2982 38.6175 28.471 38.5379C28.6259 38.4917 28.7763 38.438 28.9216 38.3768C29.0332 38.3406 29.1398 38.2914 29.2397 38.2277C29.8809 37.8908 30.4164 37.392 30.8478 36.7492C32.1119 34.865 33.6088 33.1854 35.236 31.6103C35.5941 31.2634 35.9038 31.228 36.3614 31.3757C37.88 31.8663 39.4414 32.1352 41.0437 32.1274C42.6787 32.1194 44.2032 31.6277 45.7125 31.068C45.8658 31.0114 46.0181 30.9522 46.2143 30.8782C46.3957 32.6803 47.3181 34.0085 48.5214 35.209C49.0244 35.7108 49.4741 36.3 49.8092 36.9241C50.1061 37.4776 50.2685 38.1234 50.3847 38.7483C50.5071 39.4074 50.8585 39.6476 51.332 39.1892C51.7039 38.8295 52.0189 38.3274 52.1638 37.831C52.7089 35.9626 51.9424 34.4396 50.6774 33.1479C49.7838 32.2352 49.2093 31.1921 48.9156 29.9684C48.8248 29.5887 48.869 29.3102 49.2355 29.057C50.5649 28.138 51.4581 26.8039 52.4791 25.5872C54.1263 23.6244 56.1254 22.1453 58.5965 21.3576C59.2285 21.156 59.7199 20.7742 59.9289 20.1143C60.0346 19.7807 60.0576 19.4805 59.7486 19.1836C59.5778 19.0209 59.477 18.689 59.4965 18.4455Z" fill="white"/>
</svg>
